<svg width="27" height="26" viewBox="0 0 27 26" fill="none" xmlns="http://www.w3.org/2000/svg">
<g clip-path="url(#clip0_42_107)">
<path d="M4.78116 0.324954H22.2188C24.8567 0.322354 26.9978 2.37999 27 4.92071V4.92955V21.0714C27.0027 23.6116 24.8659 25.6734 22.228 25.6755H22.2188H4.78116C2.14326 25.6776 0.00270164 23.6199 1.63657e-06 21.0797V21.0709V4.92903C-0.00215836 2.38883 2.13408 0.327554 4.77198 0.324954H4.78116Z" fill="white"/>
<path d="M4.76984 18.0808V7.00901C4.76984 6.90085 4.80332 6.84677 4.88216 6.83585C5.08466 6.82493 5.39948 6.81401 5.82716 6.81401C6.25484 6.81401 6.70466 6.80309 7.19984 6.79217C7.69502 6.78125 8.14484 6.78125 8.56118 6.78125C9.551 6.78125 10.3389 6.88941 10.9237 7.09533C11.4297 7.25757 11.8914 7.52797 12.2737 7.88625C12.5647 8.16809 12.7813 8.51389 12.9039 8.89349C13.007 9.20549 13.0605 9.53049 13.0615 9.85757C13.0696 10.2049 13.0086 10.5507 12.8817 10.8757C12.7829 11.1446 12.6339 11.3942 12.4432 11.6126C12.3077 11.7816 12.1441 11.9277 11.9594 12.0457C12.217 12.1783 12.4589 12.338 12.6792 12.5226C12.9633 12.7644 13.1928 13.0592 13.3542 13.3894C13.5573 13.8096 13.6577 14.2693 13.6469 14.7326C13.6566 15.3971 13.4439 16.0466 13.0394 16.5853C12.5934 17.1521 11.9886 17.5848 11.2957 17.8313C10.5419 18.1235 9.64172 18.2753 8.5844 18.2753H7.39208C7.00976 18.2753 6.66092 18.2753 6.3461 18.2644C6.03128 18.2535 5.74994 18.2535 5.51342 18.2426C5.27744 18.2317 5.07494 18.2316 4.90592 18.2316C4.8152 18.2322 4.76984 18.1781 4.76984 18.0808ZM7.21118 8.86177V11.2886H8.43752C8.76368 11.2886 9.07904 11.2995 9.39386 11.3104C9.62066 11.3104 9.84638 11.3323 10.0689 11.3754C10.2271 11.2434 10.3605 11.0858 10.4625 10.9095C10.5705 10.6932 10.6245 10.4561 10.6202 10.2164C10.6326 9.94181 10.5495 9.67089 10.3837 9.44729C10.2071 9.24033 9.97328 9.08641 9.70868 9.00321C9.34094 8.89401 8.957 8.84253 8.57252 8.85137H8.04386C7.88618 8.85137 7.73984 8.85137 7.61618 8.86229C7.49252 8.85085 7.35752 8.86177 7.21118 8.86177ZM7.21118 13.3358V16.2177C7.41368 16.2286 7.61618 16.2395 7.83002 16.2395C8.04386 16.2395 8.27984 16.2505 8.57252 16.2505C9.0164 16.2593 9.45974 16.2083 9.88904 16.0986C10.2179 16.0211 10.5154 15.8516 10.7439 15.6108C10.941 15.3789 11.0446 15.0867 11.0365 14.7877C11.0436 14.497 10.9615 14.2105 10.8 13.9645C10.6423 13.7368 10.3502 13.5636 9.93386 13.4555C9.77078 13.4159 9.60554 13.3873 9.43868 13.3686C9.21782 13.3468 8.99642 13.3364 8.77502 13.3364H7.21118V13.3358Z" fill="#141414"/>
<path d="M20.925 14.5491H17.3589C17.4021 14.8772 17.5209 15.1923 17.7077 15.47C17.9064 15.7622 18.1932 15.9889 18.529 16.12C18.9853 16.3004 19.4762 16.3857 19.9692 16.3691C20.3613 16.3691 20.7528 16.3368 21.1394 16.2713C21.5023 16.2084 21.8571 16.1065 22.1967 15.9681C22.2529 15.925 22.2869 15.9463 22.2869 16.055V17.7122C22.2847 17.7564 22.2772 17.8001 22.2642 17.8422C22.2437 17.8724 22.2172 17.8984 22.1854 17.9181C21.809 18.0897 21.4121 18.2171 21.0039 18.2972C20.4774 18.3945 19.9422 18.4381 19.4065 18.4272C18.5517 18.4272 17.8314 18.2972 17.2465 18.0481C16.6963 17.8178 16.2103 17.4652 15.829 17.0191C15.4726 16.6015 15.2086 16.1189 15.0525 15.6C14.7231 14.5194 14.7388 13.3681 15.0973 12.2959C15.2766 11.7535 15.5634 11.2497 15.9408 10.8118C16.3129 10.3787 16.7773 10.0282 17.3022 9.78274C17.8913 9.52274 18.5334 9.39326 19.1808 9.40366C19.7808 9.39014 20.3764 9.50506 20.9245 9.73958C21.3889 9.94134 21.795 10.2502 22.106 10.6387C22.4052 11.0089 22.6336 11.427 22.781 11.8737C22.9241 12.3006 22.9965 12.7467 22.9948 13.1955C22.9948 13.4555 22.9835 13.6833 22.9722 13.8887C22.9608 14.0941 22.9387 14.2459 22.9273 14.3437C22.9171 14.4211 22.8507 14.4804 22.7697 14.4846C22.7022 14.4846 22.5785 14.4955 22.3987 14.5064C22.1821 14.5303 21.964 14.5407 21.7464 14.5387C21.4877 14.5381 21.2177 14.5491 20.925 14.5491ZM17.3589 12.8481H19.7327C20.0254 12.8481 20.2392 12.8481 20.3742 12.8372C20.4612 12.8357 20.5476 12.8289 20.6329 12.8154V12.7072C20.6334 12.571 20.6102 12.4358 20.5654 12.3063C20.3629 11.6974 19.7667 11.2907 19.1031 11.3095C18.4794 11.2757 17.8935 11.5981 17.6067 12.1326C17.4804 12.3557 17.3967 12.5975 17.3589 12.8481Z" fill="#141414"/>
</g>
<defs>
<clipPath id="clip0_42_107">
<rect width="27" height="26" fill="white"/>
</clipPath>
</defs>
</svg>
