<svg width="83" height="45" viewBox="0 0 83 45" fill="none" xmlns="http://www.w3.org/2000/svg">
<path d="M41.4286 42.2543C52.9756 47.13 66.2963 41.7215 71.172 30.1745L82.8138 2.61359C71.2669 -2.26213 57.9462 3.1464 53.0705 14.6934L41.4286 42.2543Z" fill="white"/>
<path d="M41.3852 42.2543C29.8382 47.13 16.5176 41.7215 11.6419 30.1745L0 2.61359C11.547 -2.26213 24.8676 3.1464 29.7433 14.6934L41.3852 42.2543Z" fill="white"/>
<path d="M53.2824 14.2118C49.8957 11.8761 45.7937 10.5039 41.3705 10.5039C36.9765 10.5039 32.8964 11.8542 29.5169 14.168C29.5972 14.3432 29.6702 14.5183 29.7432 14.6935L41.3851 42.2545L41.407 42.2472L41.4289 42.2545L53.0707 14.6935C53.1364 14.5329 53.2094 14.3724 53.2824 14.2118Z" fill="#EDEDED"/>
</svg>
