<svg width="25" height="25" viewBox="0 0 25 25" fill="none" xmlns="http://www.w3.org/2000/svg">
<g clip-path="url(#clip0_106_20)">
<path d="M6.33935 24.9116C4.85259 24.844 4.04494 24.5965 3.50774 24.387C2.79594 24.1099 2.28847 23.78 1.75424 23.2465C1.22002 22.713 0.889381 22.2055 0.613725 21.4937C0.404197 20.9565 0.156775 20.1489 0.089161 18.6621C0.0148602 17.055 0 16.5728 0 12.5011C0 8.42943 0.0163462 7.94796 0.088418 6.33935C0.156032 4.85259 0.40494 4.04642 0.612982 3.50774C0.890124 2.79594 1.22076 2.28847 1.7535 1.7535C2.28698 1.22002 2.79445 0.888638 3.507 0.612982C4.04419 0.403454 4.85184 0.156032 6.3386 0.088418C7.94647 0.0148602 8.42943 0 12.4996 0C16.5713 0 17.0528 0.0163462 18.6614 0.088418C20.1482 0.156032 20.9543 0.40494 21.493 0.612982C22.2048 0.888638 22.7123 1.22002 23.2465 1.7535C23.7807 2.28698 24.1099 2.7952 24.387 3.507C24.5965 4.04419 24.844 4.85184 24.9116 6.3386C24.9851 7.94722 25 8.42869 25 12.5004C25 16.5706 24.9851 17.0535 24.9116 18.6621C24.844 20.1489 24.5951 20.9565 24.387 21.4937C24.1099 22.2055 23.78 22.713 23.2465 23.2465C22.713 23.78 22.2048 24.1099 21.493 24.387C20.9558 24.5965 20.1482 24.844 18.6614 24.9116C17.0543 24.9851 16.5713 25 12.4996 25C8.42943 25 7.94647 24.9859 6.33935 24.9116Z" fill="white"/>
<path d="M6.33935 24.9116C4.85259 24.844 4.04494 24.5965 3.50774 24.387C2.79594 24.1099 2.28847 23.78 1.75424 23.2465C1.22002 22.713 0.889381 22.2055 0.613725 21.4937C0.404197 20.9565 0.156775 20.1489 0.089161 18.6621C0.0148602 17.055 0 16.5728 0 12.5011C0 8.42943 0.0163462 7.94796 0.088418 6.33935C0.156032 4.85259 0.40494 4.04642 0.612982 3.50774C0.890124 2.79594 1.22076 2.28847 1.7535 1.7535C2.28698 1.22002 2.79445 0.888638 3.507 0.612982C4.04419 0.403454 4.85184 0.156032 6.3386 0.088418C7.94647 0.0148602 8.42943 0 12.4996 0C16.5713 0 17.0528 0.0163462 18.6614 0.088418C20.1482 0.156032 20.9543 0.40494 21.493 0.612982C22.2048 0.888638 22.7123 1.22002 23.2465 1.7535C23.7807 2.28698 24.1099 2.7952 24.387 3.507C24.5965 4.04419 24.844 4.85184 24.9116 6.3386C24.9851 7.94722 25 8.42869 25 12.5004C25 16.5706 24.9851 17.0535 24.9116 18.6621C24.844 20.1489 24.5951 20.9565 24.387 21.4937C24.1099 22.2055 23.78 22.713 23.2465 23.2465C22.713 23.78 22.2048 24.1099 21.493 24.387C20.9558 24.5965 20.1482 24.844 18.6614 24.9116C17.0543 24.9851 16.5713 25 12.4996 25C8.42943 25 7.94647 24.9859 6.33935 24.9116Z" fill="white"/>
<path d="M9.43064 12.5532C9.43064 10.8435 10.8163 9.45711 12.526 9.45711C14.2357 9.45711 15.6221 10.8435 15.6221 12.5532C15.6221 14.263 14.2357 15.6493 12.526 15.6493C10.8163 15.6493 9.43064 14.263 9.43064 12.5532ZM7.75693 12.5532C7.75693 15.1872 9.89204 17.3223 12.526 17.3223C15.16 17.3223 17.2951 15.1872 17.2951 12.5532C17.2951 9.91926 15.16 7.78416 12.526 7.78416C9.89204 7.78416 7.75701 9.91912 7.75701 12.5532M16.3694 7.59506C16.3694 7.81549 16.4346 8.031 16.557 8.21432C16.6794 8.39765 16.8534 8.54057 17.057 8.62501C17.2607 8.70945 17.4847 8.73161 17.7009 8.68869C17.9172 8.64577 18.1158 8.5397 18.2717 8.3839C18.4276 8.22809 18.5339 8.02955 18.577 7.81337C18.6201 7.5972 18.5981 7.3731 18.5138 7.16941C18.4295 6.96573 18.2867 6.79161 18.1035 6.66907C17.9203 6.54653 17.7048 6.48108 17.4844 6.48099H17.484C17.1885 6.48113 16.9052 6.59854 16.6962 6.80742C16.4872 7.01631 16.3697 7.29959 16.3694 7.59506ZM8.77382 20.1132C7.86831 20.072 7.37614 19.9211 7.04907 19.7937C6.61545 19.6249 6.30606 19.4238 5.98077 19.099C5.65548 18.7741 5.45413 18.465 5.28606 18.0314C5.15856 17.7045 5.00773 17.2122 4.96657 16.3067C4.92154 15.3277 4.91255 15.0336 4.91255 12.5534C4.91255 10.0731 4.92228 9.77988 4.96657 8.80007C5.0078 7.89457 5.15975 7.40322 5.28606 7.07533C5.45487 6.64171 5.65593 6.33232 5.98077 6.00703C6.30562 5.68174 6.61471 5.48038 7.04907 5.31232C7.37599 5.18482 7.86831 5.03398 8.77382 4.99282C9.7528 4.9478 10.0469 4.93881 12.526 4.93881C15.0051 4.93881 15.2995 4.94839 16.2793 4.99297C17.1848 5.03421 17.6762 5.18615 18.0041 5.31246C18.4377 5.48053 18.7471 5.68233 19.0724 6.00718C19.3976 6.33202 19.5983 6.64185 19.7671 7.07547C19.8946 7.4024 20.0454 7.89472 20.0866 8.80022C20.1316 9.78002 20.1406 10.0733 20.1406 12.5535C20.1406 15.0338 20.1316 15.327 20.0866 16.3068C20.0453 17.2123 19.8938 17.7045 19.7671 18.0316C19.5983 18.4652 19.3972 18.7746 19.0724 19.0991C18.7475 19.4237 18.4377 19.625 18.0041 19.7938C17.6771 19.9213 17.1848 20.0722 16.2793 20.1133C15.3003 20.1584 15.0062 20.1674 12.526 20.1674C10.0458 20.1674 9.75251 20.1584 8.77382 20.1133M8.69691 3.32187C7.70819 3.3669 7.03258 3.52367 6.44255 3.75326C5.83187 3.99036 5.31422 4.30844 4.79731 4.82453C4.2804 5.34062 3.96313 5.85835 3.72604 6.46977C3.49645 7.06017 3.33968 7.73541 3.29465 8.72414C3.24888 9.71442 3.2384 10.031 3.2384 12.5532C3.2384 15.0754 3.24888 15.392 3.29465 16.3823C3.33968 17.3711 3.49645 18.0463 3.72604 18.6367C3.96313 19.2474 4.28047 19.7661 4.79731 20.2819C5.31415 20.7978 5.83113 21.1154 6.44255 21.3532C7.03369 21.5828 7.70819 21.7396 8.69691 21.7846C9.68772 21.8296 10.0038 21.8408 12.526 21.8408C15.0482 21.8408 15.3648 21.8304 16.3551 21.7846C17.3439 21.7396 18.0191 21.5828 18.6095 21.3532C19.2201 21.1154 19.7378 20.798 20.2547 20.2819C20.7716 19.7658 21.0882 19.2474 21.326 18.6367C21.5556 18.0463 21.7131 17.371 21.7574 16.3823C21.8024 15.3913 21.8129 15.0754 21.8129 12.5532C21.8129 10.031 21.8024 9.71442 21.7574 8.72414C21.7123 7.73534 21.5556 7.0598 21.326 6.46977C21.0882 5.8591 20.7708 5.34144 20.2547 4.82453C19.7386 4.30762 19.2201 3.99036 18.6102 3.75326C18.0191 3.52367 17.3438 3.36615 16.3558 3.32187C15.3654 3.27662 15.049 3.26562 12.5271 3.26562C10.0053 3.26562 9.68809 3.2761 8.69729 3.32187" fill="#141414"/>
</g>
<defs>
<clipPath id="clip0_106_20">
<rect width="25" height="25" fill="white"/>
</clipPath>
</defs>
</svg>
