<svg width="26" height="26" viewBox="0 0 26 26" fill="none" xmlns="http://www.w3.org/2000/svg">
<g clip-path="url(#clip0_42_112)">
<path d="M13 25.75C20.1008 25.75 25.8572 20.0416 25.8572 13C25.8572 5.95837 20.1008 0.25 13 0.25C5.89922 0.25 0.142883 5.95837 0.142883 13C0.142883 20.0416 5.89922 25.75 13 25.75Z" fill="white"/>
<path d="M4.93121 13.6237C6.43421 12.8027 8.11196 12.1175 9.67956 11.4288C12.3765 10.3008 15.0841 9.19226 17.819 8.16025C18.3511 7.98441 19.3072 7.8125 19.401 8.5945C19.3496 9.70141 19.1385 10.8018 18.9936 11.9023C18.626 14.3222 18.201 16.7339 17.7866 19.1459C17.6438 19.9492 16.629 20.3652 15.9796 19.851C14.4189 18.8057 12.8463 17.7705 11.3056 16.7008C10.8008 16.1922 11.2689 15.462 11.7196 15.0988C13.005 13.8425 14.3681 12.7753 15.5864 11.4542C15.915 10.6672 14.944 11.3304 14.6238 11.5337C12.8641 12.7362 11.1474 14.0122 9.29214 15.0691C8.34446 15.5864 7.23992 15.1443 6.29267 14.8556C5.44335 14.5069 4.19878 14.1555 4.9311 13.6238L4.93121 13.6237Z" fill="#141414"/>
</g>
<defs>
<clipPath id="clip0_42_112">
<rect width="26" height="26" fill="white"/>
</clipPath>
</defs>
</svg>
